<?xml version="1.0" encoding="UTF-8" standalone="no"?>
<!-- Created with Inkscape (http://www.inkscape.org/) -->

<svg
   xmlns:dc="http://purl.org/dc/elements/1.1/"
   xmlns:cc="http://creativecommons.org/ns#"
   xmlns:rdf="http://www.w3.org/1999/02/22-rdf-syntax-ns#"
   xmlns:svg="http://www.w3.org/2000/svg"
   xmlns="http://www.w3.org/2000/svg"
   xmlns:sodipodi="http://sodipodi.sourceforge.net/DTD/sodipodi-0.dtd"
   xmlns:inkscape="http://www.inkscape.org/namespaces/inkscape"
   width="28"
   height="28"
   viewBox="0 0 28 28"
   id="svg5692"
   version="1.1"
   inkscape:version="0.91 r"
   sodipodi:docname="chama-red.svg">
  <defs
     id="defs5694" />
  <sodipodi:namedview
     id="base"
     pagecolor="#ffffff"
     bordercolor="#666666"
     borderopacity="1.0"
     inkscape:pageopacity="0.0"
     inkscape:pageshadow="2"
     inkscape:zoom="9.9878783"
     inkscape:cx="34.242816"
     inkscape:cy="14.049462"
     inkscape:document-units="px"
     inkscape:current-layer="layer1"
     showgrid="false"
     inkscape:window-width="1375"
     inkscape:window-height="876"
     inkscape:window-x="65"
     inkscape:window-y="24"
     inkscape:window-maximized="1"
     units="px" />
  <metadata
     id="metadata5697">
    <rdf:RDF>
      <cc:Work
         rdf:about="">
        <dc:format>image/svg+xml</dc:format>
        <dc:type
           rdf:resource="http://purl.org/dc/dcmitype/StillImage" />
        <dc:title></dc:title>
      </cc:Work>
    </rdf:RDF>
  </metadata>
  <g
     inkscape:label="Layer 1"
     inkscape:groupmode="layer"
     id="layer1"
     transform="translate(0,-1024.3622)">
    <g
       id="g5559"
       transform="matrix(1.7259097,0,0,1.7259097,-0.52786315,-762.97113)">
      <g
         inkscape:export-ydpi="53.23"
         inkscape:export-xdpi="53.23"
         inkscape:export-filename="/home/jcscabral/Documents/Design/Web/BrasaTestes/vs4/pic/chama.png"
         style="fill:#c4151c;fill-opacity:1"
         transform="matrix(0.65719215,0,0,-0.65719215,12.019866,1046.8783)"
         id="g96-3-3">
        <path
           inkscape:connector-curvature="0"
           id="path98-6-6"
           style="fill:#c4151c;fill-opacity:1;fill-rule:nonzero;stroke:none"
           d="m 0,0 c -0.99,1.264 -4.14,3.602 -5.799,1.742 -1.869,-2.095 -5.939,-3.066 -7.366,-0.6 0.414,-1.585 2.167,-2.212 1.164,-4.155 -0.174,1.813 -2.186,2.624 -2.235,4.624 -0.047,1.925 1.757,4.178 3.796,4.321 -0.875,-0.389 -1.559,-1.227 -1.689,-2.198 -0.179,-1.341 0.762,-2.429 2.103,-2.429 1.34,0 2.573,1.088 2.753,2.429 0.07,0.53 -0.035,1.019 -0.269,1.418 -0.664,1.278 -2.236,2.051 -1.74,3.936 0.505,1.917 2.999,3.689 4.901,3.437 C -4.702,12.342 -5.937,11.563 -6.629,9.968 -7.434,8.119 -6.941,7.083 -6.553,6.687 -6.551,6.685 -6.55,6.683 -6.548,6.681 -6.228,6.344 -5.769,6.15 -5.255,6.15 c 0.93,0 1.783,0.743 1.907,1.658 0.099,0.746 -0.413,1.354 -1.155,1.398 C -1.992,10.711 0.69,8.463 -1.05,5.947 -1.142,5.815 -1.423,5.454 -1.45,5.406 -1.59,5.186 -1.687,4.938 -1.723,4.675 -1.843,3.772 -1.209,3.04 -0.307,3.04 0.598,3.04 1.427,3.772 1.548,4.675 1.613,5.15 1.466,5.578 1.183,5.876 2.597,6.451 3.846,5.284 3.203,3.823 2.51,2.247 0.439,1.933 0,0 m -5.43,16.94 c -6.722,0 -12.173,-5.448 -12.173,-12.172 0,-6.724 5.451,-12.173 12.173,-12.173 6.723,0 12.173,5.449 12.173,12.173 0,6.724 -5.45,12.172 -12.173,12.172" />
      </g>
    </g>
  </g>
</svg>
