<?xml version="1.0" encoding="UTF-8" standalone="no"?>
<!-- Created with Inkscape (http://www.inkscape.org/) -->

<svg
   xmlns:dc="http://purl.org/dc/elements/1.1/"
   xmlns:cc="http://creativecommons.org/ns#"
   xmlns:rdf="http://www.w3.org/1999/02/22-rdf-syntax-ns#"
   xmlns:svg="http://www.w3.org/2000/svg"
   xmlns="http://www.w3.org/2000/svg"
   xmlns:sodipodi="http://sodipodi.sourceforge.net/DTD/sodipodi-0.dtd"
   xmlns:inkscape="http://www.inkscape.org/namespaces/inkscape"
   width="210mm"
   height="297mm"
   viewBox="0 0 744.09448819 1052.3622047"
   id="svg4423"
   version="1.1"
   inkscape:version="0.91 r"
   sodipodi:docname="loja-on-line.svg">
  <defs
     id="defs4425" />
  <sodipodi:namedview
     id="base"
     pagecolor="#ffffff"
     bordercolor="#666666"
     borderopacity="1.0"
     inkscape:pageopacity="0.0"
     inkscape:pageshadow="2"
     inkscape:zoom="0.35"
     inkscape:cx="-150.71429"
     inkscape:cy="520"
     inkscape:document-units="px"
     inkscape:current-layer="layer1"
     showgrid="false"
     inkscape:window-width="1375"
     inkscape:window-height="876"
     inkscape:window-x="65"
     inkscape:window-y="24"
     inkscape:window-maximized="1" />
  <metadata
     id="metadata4428">
    <rdf:RDF>
      <cc:Work
         rdf:about="">
        <dc:format>image/svg+xml</dc:format>
        <dc:type
           rdf:resource="http://purl.org/dc/dcmitype/StillImage" />
        <dc:title></dc:title>
      </cc:Work>
    </rdf:RDF>
  </metadata>
  <g
     inkscape:label="Layer 1"
     inkscape:groupmode="layer"
     id="layer1">
    <g
       id="g4989"
       transform="translate(-25.714286,174.28571)">
      <text
         inkscape:export-ydpi="90"
         inkscape:export-xdpi="90"
         inkscape:export-filename="/home/jcscabral/Documents/Design/Web/BrasaTestes/vs2/pic/lojaOnLine.png"
         id="text114-7-7"
         style="font-style:normal;font-variant:normal;font-weight:normal;font-stretch:normal;font-size:40px;font-family:'Abyssinica SIL';-inkscape-font-specification:'Abyssinica SIL';letter-spacing:12.79999924px;writing-mode:lr-tb;fill:#231f20;fill-opacity:1;fill-rule:nonzero;stroke:none"
         x="209.61623"
         y="318.48615">
        <tspan
           y="318.48615"
           x="209.61623"
           style="font-style:normal;font-variant:normal;font-weight:normal;font-stretch:normal;font-family:Bitter;-inkscape-font-specification:Bitter;letter-spacing:10px;word-spacing:2px"
           id="tspan116-5-5"
           sodipodi:role="line">LOJA ON LINE</tspan>
      </text>
      <g
         inkscape:export-ydpi="90"
         inkscape:export-xdpi="90"
         inkscape:export-filename="/home/jcscabral/Documents/Design/Web/BrasaTestes/vs2/pic/lojaOnLine.png"
         transform="matrix(1.25,0,0,-1.25,405.59905,265.11639)"
         id="g126-6-6">
        <path
           inkscape:connector-curvature="0"
           id="path128-2-2"
           style="fill:#231f20;fill-opacity:1;fill-rule:nonzero;stroke:none"
           d="m 0,0 c -0.99,1.264 -4.14,3.602 -5.799,1.742 -1.869,-2.094 -5.939,-3.066 -7.365,-0.599 0.413,-1.586 2.166,-2.213 1.162,-4.155 -0.173,1.813 -2.186,2.623 -2.234,4.623 -0.047,1.926 1.757,4.178 3.797,4.321 -0.876,-0.389 -1.56,-1.227 -1.69,-2.198 -0.18,-1.341 0.762,-2.429 2.103,-2.429 1.34,0 2.573,1.088 2.753,2.429 0.07,0.53 -0.035,1.02 -0.269,1.418 -0.664,1.278 -2.236,2.051 -1.74,3.936 0.505,1.918 2.999,3.689 4.901,3.437 -0.321,-0.183 -1.556,-0.962 -2.248,-2.556 -0.805,-1.85 -0.312,-2.885 0.076,-3.282 0.002,-0.001 0.003,-0.003 0.005,-0.005 0.32,-0.338 0.779,-0.532 1.293,-0.532 0.93,0 1.783,0.743 1.907,1.659 0.099,0.746 -0.413,1.353 -1.155,1.398 2.511,1.504 5.193,-0.744 3.453,-3.26 -0.092,-0.131 -0.373,-0.492 -0.4,-0.541 -0.14,-0.22 -0.237,-0.467 -0.273,-0.73 -0.12,-0.903 0.514,-1.635 1.416,-1.635 0.905,0 1.734,0.732 1.855,1.635 C 1.613,5.15 1.466,5.578 1.183,5.877 2.597,6.451 3.846,5.285 3.203,3.824 2.51,2.248 0.439,1.934 0,0 m -5.43,16.941 c -6.722,0 -12.174,-5.449 -12.174,-12.173 0,-6.723 5.452,-12.172 12.174,-12.172 6.723,0 12.173,5.449 12.173,12.172 0,6.724 -5.45,12.173 -12.173,12.173" />
      </g>
      <path
         inkscape:export-ydpi="90"
         inkscape:export-xdpi="90"
         inkscape:export-filename="/home/jcscabral/Documents/Design/Web/BrasaTestes/vs2/pic/lojaOnLine.png"
         inkscape:connector-curvature="0"
         id="path130-9-9"
         style="fill:#231f20;fill-opacity:1;fill-rule:nonzero;stroke:none"
         d="m 372.14655,259.98927 -161.70247,0 0,-1.6675 161.70247,0 0,1.6675 z" />
      <path
         inkscape:export-ydpi="90"
         inkscape:export-xdpi="90"
         inkscape:export-filename="/home/jcscabral/Documents/Design/Web/BrasaTestes/vs2/pic/lojaOnLine.png"
         inkscape:connector-curvature="0"
         id="path132-1-1"
         style="fill:#231f20;fill-opacity:1;fill-rule:nonzero;stroke:none"
         d="m 586.69877,259.98927 -161.22221,0 0,-1.6675 161.22221,0 0,1.6675 z" />
      <path
         inkscape:export-ydpi="90"
         inkscape:export-xdpi="90"
         inkscape:export-filename="/home/jcscabral/Documents/Design/Web/BrasaTestes/vs2/pic/lojaOnLine.png"
         inkscape:connector-curvature="0"
         id="path134-2-2"
         style="fill:#231f20;fill-opacity:1;fill-rule:nonzero;stroke:none"
         d="m 586.69878,340.78427 -375.87931,0 0,-1.6675 375.87931,0 0,1.6675 z" />
    </g>
  </g>
</svg>
